
<!-- Generator: Adobe Illustrator 26.0.3, SVG Export Plug-In . SVG Version: 6.00 Build 0)  -->
<svg version="1.1" id="Livello_1" xmlns="http://www.w3.org/2000/svg" xmlns:xlink="http://www.w3.org/1999/xlink" x="0px" y="0px"
	 viewBox="0 0 841.9 158.5" style="enable-background:new 0 0 841.9 158.5;" xml:space="preserve">
<style type="text/css">
	.st0{fill:#5BB2AC;}
	.st1{fill:#83C7BC;}
	.st2{display:none;opacity:0.8;}
	.st3{display:inline;fill:#00A09A;}
</style>
<g>
	<path class="st0" d="M89.3,39.4c0.5-0.3,0.9-0.6,1.4-1c3.9-2.9,7.7-5.9,10-10.3c2.5-4.9,0.3-9.2-5-10.3c-1.7-0.4-3.5-0.5-5.2-0.3
		c-7,0.7-13.7,2.5-20,5.5c-2.4,1.1-4.7,2.3-6.7,4.9c3.3-1.1,6.1-2.2,9-3c5-1.4,10-2.2,15.2-1c3.9,0.9,5.1,4.7,2.7,7.8
		c-0.7,0.9-1.6,1.8-2.6,2.4c-5.9,4.3-13.1,7.2-20.3,8.1c-2.7,0-5.4-0.6-8.2-1.7C44,34.2,26.1,43.1,21.8,59.1
		c-4.6,16.9,3.4,38.6,18.1,48.5c8.2,5.6,14.3,7.2,26.2,4.5c2-0.4,3.1,0,5,0.3c9.1,1.6,18.4,2,26.5-4.6c11.8-9.5,16.5-22.5,17.1-34.2
		C115,54.2,104,41.4,89.3,39.4z M68.3,42.2l0.3,0C68.5,42.1,68.4,42.2,68.3,42.2z"/>
	<g>
		<g>
			<path class="st0" d="M174,113.6c-10.4,0-19.4-3.7-26.6-11.1c-7.2-7.3-10.8-16.3-10.8-26.7c0-10.3,3.7-19.3,11-26.6
				c7.2-7.3,16.1-11,26.4-11c9.5,0,17.8,3.2,24.7,9.6c6.9,6.3,10.9,14.1,12.1,23.3c0.4,1.8,0.5,3.4,0.5,4.9c0,1.3-0.2,2.7-0.5,3.9
				l-0.6,2.4h-58.1c1,4.5,3.2,8.2,6.6,11.3c4.3,3.8,9.2,5.7,15.3,5.7c4.1,0,8-1,11.6-2.9c3.6-1.9,6.4-4.5,8.6-7.8l1.2-1.7l14.4,2.8
				l-1.8,3.7c-3,6.1-7.7,11-13.9,14.7C187.8,111.8,181.1,113.6,174,113.6z M152.2,68.8h43c-1-4.1-3.1-7.7-6.4-10.7
				c-4.1-3.8-8.9-5.6-14.8-5.6c-6,0-11,1.8-15.2,5.7C155.5,61.1,153.3,64.6,152.2,68.8z"/>
		</g>
		<g>
			<path class="st0" d="M250.7,113.7c-10.2,0-19-3.7-26.2-11.1c-7.1-7.4-10.8-16.3-10.8-26.5c0-10.5,3.6-19.5,10.8-26.9l0,0
				c7.2-7.2,16-10.9,26.1-10.9c6.3,0,12,1.5,17.1,4.6c2.2,1.3,4.3,2.9,6.1,4.6V17.8H289v94.8h-15.1v-8c-1.8,1.7-3.9,3.3-6.1,4.6
				C262.7,112.2,257,113.7,250.7,113.7z M251.4,52.6c-6.4,0-11.8,2.2-16.3,6.8c-4.5,4.6-6.7,10-6.7,16.7c0,6.5,2.2,11.8,6.7,16.4
				c4.5,4.6,9.8,6.8,16.3,6.8c6.4,0,11.7-2.2,16.2-6.8c4.5-4.6,6.8-10,6.8-16.4c0-6.5-2.2-11.9-6.8-16.6
				C263.1,54.9,257.8,52.6,251.4,52.6z"/>
		</g>
		<g>
			<path class="st0" d="M332.7,113.6c-10.4,0-19.4-3.7-26.6-11.1c-7.2-7.3-10.8-16.3-10.8-26.7c0-10.3,3.7-19.3,11-26.6
				c7.2-7.3,16.1-11,26.4-11c9.5,0,17.8,3.2,24.7,9.6c6.9,6.3,10.9,14.1,12.1,23.3c0.4,1.8,0.5,3.4,0.5,4.9c0,1.3-0.2,2.7-0.5,3.9
				l-0.6,2.4h-58.1c1,4.5,3.2,8.2,6.6,11.3c4.3,3.8,9.2,5.7,15.3,5.7c4.1,0,8-1,11.6-2.9c3.6-1.9,6.4-4.5,8.6-7.8l1.2-1.7l14.4,2.8
				l-1.8,3.7c-3,6.1-7.7,11-13.9,14.7C346.6,111.8,339.8,113.6,332.7,113.6z M311,68.8h43c-1-4.1-3.1-7.7-6.4-10.7
				c-4.1-3.8-8.9-5.6-14.8-5.6c-6,0-11,1.8-15.2,5.7C314.2,61.1,312,64.6,311,68.8z"/>
		</g>
		<g>
			<path class="st0" d="M442.1,112.6H427V72c0-6.2-1.7-10.8-5.1-14.2c-3.5-3.4-7.6-5.1-12.8-5.1c-5.7,0-10.3,2-14,6.2
				c-3.8,4.3-5.7,9.6-5.7,16.4v37.3h-15.1V39.3h15.1v7c1.4-1.3,3-2.6,4.8-3.7c4.7-3,10.1-4.5,16.3-4.5c8.6,0,16.1,2.8,22.2,8.4
				c6.2,5.7,9.4,13.3,9.4,22.7V112.6z"/>
		</g>
	</g>
	<g>
		<g>
			<path class="st1" d="M495.8,113.5h-8.9l-27.1-73.3H476l21,58l20.9-58h16.2l-27.1,73.3H498H495.8z"/>
		</g>
		<g>
			<path class="st1" d="M553.1,113.5H538V40.2h15.1V113.5z M545.5,34.9c-2.7,0-5-0.9-6.8-2.7c-1.9-1.8-2.8-4.2-2.8-6.9
				c0-2.7,1-5,2.8-6.9l0.1-0.1c1.9-1.7,4.1-2.6,6.8-2.6c2.8,0,5.1,0.9,7,2.7c1.9,1.8,2.9,4.2,2.9,6.9c0,2.7-1,5.1-2.8,6.9
				C550.7,34,548.3,34.9,545.5,34.9z"/>
		</g>
		<g>
			<path class="st1" d="M597.4,114.5c-10.2,0-19-3.7-26.2-11.1c-7.1-7.4-10.8-16.3-10.8-26.7c0-10.3,3.6-19.3,10.8-26.6l0,0
				c7.2-7.3,16-11.1,26.2-11.1c6.2,0,11.9,1.5,17,4.5c2.3,1.3,4.3,2.9,6.2,4.7v-8.1h15.1v73.3h-15.1v-8.1c-1.8,1.8-3.9,3.3-6.2,4.6
				C609.3,113,603.6,114.5,597.4,114.5z M598.2,53.4c-6.4,0-11.8,2.2-16.2,6.8c-4.5,4.6-6.7,10-6.7,16.5c0,6.6,2.2,12.1,6.7,16.7
				c4.5,4.6,9.8,6.8,16.3,6.8c6.4,0,11.7-2.3,16.2-6.9c4.6-4.7,6.8-10.1,6.8-16.6c0-6.5-2.2-11.9-6.8-16.5
				C609.9,55.6,604.6,53.4,598.2,53.4z"/>
		</g>
		<g>
			<path class="st1" d="M681.4,142.5c-8.2,0-15.7-2.3-22.5-6.7c-6.9-4.6-11.4-11.3-13.2-19.9l-0.8-3.8h15.1l0.6,2.3
				c1.3,4.6,3.8,7.8,7.6,10.1c4,2.3,8.4,3.5,13.1,3.5c2.6,0,5.1-0.4,7.4-1.2c2.3-0.8,4.5-2.1,6.6-3.8c2-1.6,3.6-4.1,4.8-7.3
				c1.3-3.3,2-7.4,2.1-11.9c-1.8,1.7-3.9,3.2-6.2,4.4c-5,2.8-10.8,4.3-17,4.3c-10.4,0-19.3-3.5-26.3-10.5c-7-7-10.6-15.8-10.6-26.3
				c0-10.4,3.6-19.1,10.6-26.1c7-6.9,15.8-10.5,25.9-10.5h0.4c6.3,0,12,1.5,17,4.3c2.3,1.3,4.3,2.8,6.2,4.5v-7.7h15.1v62.6
				c0,6.8-1.1,12.9-3.1,18.1c-2.1,5.4-5,9.6-8.7,12.7c-3.5,3-7.4,5.2-11.4,6.7C690,141.8,685.8,142.5,681.4,142.5z M679.7,53.3
				c-6.6,0-11.9,2.1-16.4,6.5c-4.4,4.3-6.6,9.5-6.6,15.9c0,6.6,2.2,11.9,6.6,16.1c4.5,4.3,9.8,6.4,16.3,6.4c6.4,0,11.7-2.1,16.3-6.5
				c4.5-4.3,6.7-9.5,6.7-16c0-6.3-2.2-11.4-6.7-15.8C691.5,55.4,686.2,53.3,679.7,53.3z"/>
		</g>
		<g>
			<path class="st1" d="M762.6,142.5c-8.2,0-15.7-2.3-22.5-6.7c-6.9-4.6-11.4-11.3-13.2-19.9l-0.8-3.8h15.1l0.6,2.3
				c1.3,4.6,3.8,7.8,7.6,10.1c4,2.3,8.4,3.5,13.1,3.5c2.6,0,5.1-0.4,7.4-1.2c2.3-0.8,4.5-2.1,6.6-3.8c2-1.6,3.6-4.1,4.8-7.3
				c1.3-3.3,2-7.4,2.1-11.9c-1.8,1.7-3.9,3.2-6.2,4.4c-5,2.8-10.8,4.3-17,4.3c-10.4,0-19.3-3.5-26.3-10.5c-7-7-10.6-15.8-10.6-26.3
				c0-10.4,3.6-19.1,10.6-26.1c7-6.9,15.8-10.5,25.9-10.5h0.4c6.3,0,12,1.5,17,4.3c2.3,1.3,4.3,2.8,6.2,4.5v-7.7h15.1v62.6
				c0,6.8-1.1,12.9-3.1,18.1c-2.1,5.4-5,9.6-8.7,12.7c-3.5,3-7.4,5.2-11.4,6.7C771.3,141.8,767,142.5,762.6,142.5z M761,53.3
				c-6.6,0-11.9,2.1-16.4,6.5c-4.4,4.3-6.6,9.5-6.6,15.9c0,6.6,2.2,11.9,6.6,16.1c4.5,4.3,9.8,6.4,16.3,6.4c6.4,0,11.7-2.1,16.3-6.5
				c4.5-4.3,6.7-9.5,6.7-16c0-6.3-2.2-11.4-6.7-15.8C772.8,55.4,767.4,53.3,761,53.3z"/>
		</g>
		<g>
			<path class="st1" d="M823.1,113.5H808V40.2h15.1V113.5z M815.5,34.9c-2.7,0-5-0.9-6.8-2.7c-1.9-1.8-2.8-4.2-2.8-6.9
				c0-2.7,1-5,2.8-6.9l0.1-0.1c1.9-1.7,4.1-2.6,6.8-2.6c2.8,0,5.1,0.9,7,2.7c1.9,1.8,2.9,4.2,2.9,6.9c0,2.7-1,5.1-2.8,6.9
				C820.6,34,818.3,34.9,815.5,34.9z"/>
		</g>
	</g>
	<g class="st2">
		<path class="st3" d="M443.6,29.7c1.4-1.4,3.1-2.1,5.2-2.1c2.1,0,3.9,0.7,5.2,2.1c1.4,1.4,2,3.1,2,5.2c0,2-0.7,3.8-2,5.2
			c-1.4,1.4-3.1,2.1-5.2,2.1c-2.2,0-3.9-0.7-5.3-2.1s-2-3.1-2-5.2C441.5,32.8,442.2,31.1,443.6,29.7z M444.3,39.4
			c1.1,1.2,2.6,1.8,4.5,1.8c1.9,0,3.4-0.6,4.6-1.8c1.1-1.2,1.7-2.7,1.7-4.5c0-1.8-0.6-3.3-1.7-4.5c-1.2-1.2-2.7-1.8-4.5-1.8
			c-1.8,0-3.3,0.6-4.5,1.9c-1.2,1.2-1.7,2.7-1.7,4.5C442.6,36.7,443.2,38.2,444.3,39.4z M449.7,30.5c0.8,0,1.4,0.3,1.9,0.8
			c0.5,0.5,0.8,1.2,0.8,1.9c0,0.6-0.2,1.2-0.5,1.6c-0.3,0.5-0.8,0.8-1.4,1l2.1,3.3h-1.4l-2-3.1h-2V39h-1.2v-8.5H449.7z M447.3,34.7
			h2.3c0.5,0,0.9-0.1,1.2-0.4c0.3-0.3,0.5-0.7,0.5-1.2c0-0.5-0.1-0.9-0.4-1.2c-0.3-0.3-0.7-0.4-1.1-0.4h-2.4V34.7z"/>
	</g>
</g>
<g>
	<g class="st2">
		<path class="st3" d="M430.3,189.9c1.4-1.4,3.1-2.1,5.2-2.1c2.1,0,3.9,0.7,5.2,2.1c1.4,1.4,2,3.1,2,5.2c0,2-0.7,3.8-2,5.2
			c-1.4,1.4-3.1,2.1-5.2,2.1c-2.2,0-3.9-0.7-5.3-2.1c-1.3-1.4-2-3.1-2-5.2C428.3,193,429,191.3,430.3,189.9z M431.1,199.6
			c1.1,1.2,2.6,1.8,4.5,1.8c1.9,0,3.4-0.6,4.6-1.8c1.1-1.2,1.7-2.7,1.7-4.5c0-1.8-0.6-3.3-1.7-4.5c-1.2-1.2-2.7-1.8-4.5-1.8
			c-1.8,0-3.3,0.6-4.5,1.9c-1.2,1.2-1.7,2.7-1.7,4.5C429.3,196.9,429.9,198.4,431.1,199.6z M436.5,190.7c0.8,0,1.4,0.3,1.9,0.8
			c0.5,0.5,0.8,1.2,0.8,1.9c0,0.6-0.2,1.2-0.5,1.6c-0.3,0.5-0.8,0.8-1.4,1l2.1,3.3H438l-2-3.1h-2v3.1h-1.2v-8.5H436.5z M434,195h2.3
			c0.5,0,0.9-0.1,1.2-0.4c0.3-0.3,0.5-0.7,0.5-1.2c0-0.5-0.1-0.9-0.4-1.2c-0.3-0.3-0.7-0.4-1.1-0.4H434V195z"/>
	</g>
</g>
</svg>
